<?xml version="1.0" standalone="no"?>
<!DOCTYPE svg PUBLIC "-//W3C//DTD SVG 1.1//EN" "http://www.w3.org/Graphics/SVG/1.1/DTD/svg11.dtd" >
<svg xmlns="http://www.w3.org/2000/svg" xmlns:xlink="http://www.w3.org/1999/xlink" version="1.1">
<metadata></metadata>
<defs>
<font id="rr_beaverregular" horiz-adv-x="578" >
<font-face units-per-em="1000" ascent="750" descent="-250" />
<missing-glyph horiz-adv-x="201" />
<glyph horiz-adv-x="0" />
<glyph unicode="&#xd;" horiz-adv-x="201" />
<glyph unicode=" "  horiz-adv-x="201" />
<glyph unicode="&#x09;" horiz-adv-x="201" />
<glyph unicode="&#xa0;" horiz-adv-x="201" />
<glyph unicode="!" horiz-adv-x="201" d="M20 700h161v-485h-161v485zM20 162h161v-162h-161v162v0z" />
<glyph unicode="&#x22;" horiz-adv-x="184" d="M58 699q13 4 22.5 -3t8.5 -21v-91q0 -14 -9.5 -26.5t-23.5 -16.5l-4 -2q-14 -4 -23.5 3t-8.5 21v90q0 14 9.5 27t23.5 17zM132 699q14 4 23 -3t9 -21v-91q-1 -14 -10.5 -26.5t-22.5 -16.5l-5 -2q-13 -4 -22.5 3t-8.5 21v90q0 14 9.5 27t23.5 17z" />
<glyph unicode="#" horiz-adv-x="740" d="M667 700l-50 -162h103l-53 -161h-100l-16 -54h116l-54 -162h-112l-50 -161h-161l49 161h-53l-50 -161h-162l50 161h-104l54 162h100l16 54h-116l54 161h112l50 162h161l-49 -162h53l50 162h162zM389 323l17 54h-54l-17 -54h54z" />
<glyph unicode="$" d="M343 431q45 0 84 -17t68 -46.5t46 -68.5t17 -84t-17 -84t-46 -68t-68 -46t-84 -17h-53v-50h-47v50h-223v161h223v108h-8q-45 0 -84 17t-68 46.5t-46 68.5t-17 84t17 84t46 68t68 46t84 17h8v50h47v-50h161v-162h-161v-107h53zM243 431v107h-8q-22 0 -38 -15.5t-16 -37.5 q0 -23 16 -38.5t38 -15.5h8zM343 161q23 1 38.5 16.5t15.5 37.5q0 23 -15.5 38.5t-38.5 15.5h-53v-108h53z" />
<glyph unicode="%" horiz-adv-x="470" d="M119 646q28 0 47 -19.5t19 -46.5v-83q0 -28 -19 -47t-47 -19h-33q-28 0 -47 19t-19 47v83q0 27 19 46.5t47 19.5h33zM136 580q0 7 -5 11.5t-12 4.5h-33q-7 0 -12 -4.5t-5 -11.5v-83q0 -7 5 -12t12 -5h33q7 0 12 5t5 12v83zM181 0h-108l216 700h107zM384 269q28 0 47 -19 t19 -47v-83q0 -28 -19 -47t-47 -19h-33q-28 0 -47 19t-19 47v83q0 28 19 47t47 19h33zM401 203q0 7 -5 11.5t-12 4.5h-33q-7 0 -12 -4.5t-5 -11.5v-83q0 -7 5 -12t12 -5h33q7 0 12 5t5 12v83z" />
<glyph unicode="&#x26;" d="M235 269q-23 0 -38.5 -15.5t-15.5 -38.5q0 -22 15.5 -37.5t38.5 -15.5h323v-162h-323q-45 0 -84 17t-68 46t-46 68t-17 84q0 38 12 72.5t35 62.5q-23 28 -35 62.5t-12 72.5q0 45 17 84t46 68t68 46t84 17h108q45 0 84 -17t68 -46t46 -68t17 -84q0 -38 -12 -72.5 t-35 -62.5q23 -28 35 -62.5t12 -72.5h-161q0 23 -15.5 38.5t-38.5 15.5h-108zM235 538q-23 0 -38.5 -15.5t-15.5 -37.5q0 -23 15.5 -38.5t38.5 -15.5h108q23 0 38.5 15.5t15.5 38.5q0 22 -15.5 37.5t-38.5 15.5h-108z" />
<glyph unicode="'" horiz-adv-x="183" d="M52 691q5 9 13.5 9t14.5 -9l79 -119q6 -9 3 -15t-14 -6h-57q-11 0 -22.5 6t-16.5 15l-26 39q-6 8 -6 20.5t6 21.5z" />
<glyph unicode="(" horiz-adv-x="256" d="M236 0q-45 0 -84 17t-68.5 46t-46.5 68t-17 84v270q0 45 17 84t46.5 68t68.5 46t84 17v-162q-23 0 -38.5 -15.5t-15.5 -37.5v-270q0 -22 15.5 -38t38.5 -16v-161z" />
<glyph unicode=")" horiz-adv-x="255" d="M20 700q45 0 84 -17t68 -46t46 -68t17 -84v-270q0 -45 -17 -84t-46 -68t-68 -46t-84 -17v161q22 0 37.5 16t15.5 38v270q0 22 -15.5 37.5t-37.5 15.5v162z" />
<glyph unicode="*" horiz-adv-x="201" d="M181 629v-20h-56l40 -40l-14 -14l-40 40v-56h-20v56l-40 -40l-15 14l40 40h-56v20h56l-40 40l15 15l40 -40v56h20v-56l40 40l14 -15l-40 -40h56v0z" />
<glyph unicode="+" horiz-adv-x="363" d="M343 377v-108h-107v-108h-108v108h-108v108h108v107h108v-107h107v0z" />
<glyph unicode="," horiz-adv-x="184" d="M139 108q14 0 21 -9t2 -23l-32 -97q-5 -14 -18 -23t-27 -9h-40q-14 0 -21 9t-2 23l32 97q5 14 18 23t27 9h40z" />
<glyph unicode="-" horiz-adv-x="363" d="M20 269v108h323v-108h-323v0z" />
<glyph unicode="." horiz-adv-x="147" d="M94 108q14 0 23.5 -10t9.5 -24v-40q0 -14 -9.5 -24t-23.5 -10h-40q-14 0 -24 10t-10 24v40q0 14 10 24t24 10h40z" />
<glyph unicode="/" horiz-adv-x="391" d="M371 700l-190 -700h-161l187 700h164v0z" />
<glyph unicode="0" d="M343 700q45 0 84 -17t68 -46t46 -68t17 -84v-270q0 -45 -17 -84t-46 -68t-68 -46t-84 -17h-108q-45 0 -84 17t-68 46t-46 68t-17 84v270q0 45 17 84t46 68t68 46t84 17h108zM397 485q0 22 -15.5 37.5t-38.5 15.5h-108q-23 0 -38.5 -15.5t-15.5 -37.5v-270 q0 -22 15.5 -37.5t38.5 -15.5h108q23 0 38.5 15.5t15.5 37.5v270zM235 431h108v-162h-108v162z" />
<glyph unicode="1" horiz-adv-x="365" d="M345 700v-700h-162v485h-162q0 45 17 84t46.5 68t68.5 46t84 17h108z" />
<glyph unicode="2" d="M181 161h377v-161h-538v215q0 45 17 84t46 68.5t68 46.5t84 17h108q23 0 38.5 15.5t15.5 38.5q0 22 -15.5 37.5t-38.5 15.5h-108q-23 0 -38.5 -15.5t-15.5 -37.5h-161q0 45 17 84t46 68t68 46t84 17h108q45 0 84 -17t68 -46t46 -68t17 -84t-17 -84.5t-46 -68.5t-68 -46 t-84 -17h-108q-23 0 -38.5 -15.5t-15.5 -38.5v-54z" />
<glyph unicode="3" d="M558 215q0 -45 -17 -84t-46 -68t-68 -46t-84 -17h-323v161h323q23 0 38.5 16t15.5 38v54h-377v162h377v54q0 22 -15.5 37.5t-38.5 15.5h-323v162h323q45 0 84 -17t68 -46t46 -68t17 -84v-270z" />
<glyph unicode="4" d="M558 700v-700h-161v269h-162q-45 0 -84 17t-68 46t-46 68.5t-17 84.5v215h161v-215q0 -23 15.5 -38.5t38.5 -15.5h162v269h161z" />
<glyph unicode="5" d="M343 431q45 0 84 -17t68 -46.5t46 -68.5t17 -84t-17 -84t-46 -68t-68 -46t-84 -17h-323v161h323q23 1 38.5 16.5t15.5 37.5q0 23 -15.5 38.5t-38.5 15.5h-108q-45 0 -84 17t-68 46t-46 68.5t-17 84.5v215h430v-162h-269v-53q0 -23 15.5 -38.5t38.5 -15.5h108v0z" />
<glyph unicode="6" d="M343 431q45 0 84 -17t68 -46.5t46 -68.5t17 -84t-17 -84t-46 -68t-68 -46t-84 -17h-108q-45 0 -84 17t-68 46t-46 68t-17 84v270q0 45 17 84t46 68t68 46t84 17h54q45 0 84 -17t68 -46t46 -68t17 -84h-161q0 22 -15.5 37.5t-38.5 15.5h-54q-23 0 -38.5 -15.5t-15.5 -37.5 v-54h162zM343 161q23 0 38.5 16t15.5 38q0 23 -15.5 38.5t-38.5 15.5h-162v-54q0 -22 15.5 -38t38.5 -16h108z" />
<glyph unicode="7" horiz-adv-x="470" d="M20 700h430v-162v0l-269 -538h-161l269 538h-269v162v0z" />
<glyph unicode="8" horiz-adv-x="525" d="M505 485q0 -38 -12.5 -72.5t-34.5 -62.5q22 -28 34.5 -62.5t12.5 -72.5q0 -45 -17 -84t-46.5 -68t-68.5 -46t-84 -17h-53q-45 0 -84 17t-68.5 46t-46.5 68t-17 84q0 38 12.5 72.5t34.5 62.5q-22 28 -34.5 62.5t-12.5 72.5q0 45 17 84t46.5 68t68.5 46t84 17h53 q45 0 84 -17t68.5 -46t46.5 -68t17 -84zM236 538q-23 0 -38.5 -15.5t-15.5 -37.5q0 -23 15.5 -38.5t38.5 -15.5h53q23 0 38.5 15.5t15.5 38.5q0 22 -15.5 37.5t-38.5 15.5h-53zM289 162q23 0 38.5 15.5t15.5 37.5q0 23 -15.5 38.5t-38.5 15.5h-53q-23 0 -38.5 -15.5 t-15.5 -38.5q0 -22 15.5 -37.5t38.5 -15.5h53z" />
<glyph unicode="9" d="M343 700q45 0 84 -17t68 -46t46 -68t17 -84v-270q0 -45 -17 -84t-46 -68t-68 -46t-84 -17h-54q-45 0 -84 17t-68 46t-46 68t-17 84h161q0 -22 15.5 -37.5t38.5 -15.5h54q23 0 38.5 15.5t15.5 37.5v54h-162q-45 0 -84 17t-68 46.5t-46 68.5t-17 84t17 84t46 68t68 46 t84 17h108zM397 431v54q0 22 -15.5 37.5t-38.5 15.5h-108q-23 0 -38.5 -15.5t-15.5 -37.5q0 -23 15.5 -38.5t38.5 -15.5h162z" />
<glyph unicode=":" horiz-adv-x="148" d="M20 290q0 14 10 24t24 10h40q14 0 24 -10t10 -24v-40q0 -14 -10 -24t-24 -10h-40q-14 0 -24 10t-10 24v40zM94 485q14 0 24 -10t10 -24v-40q0 -14 -10 -24t-24 -10h-40q-14 0 -24 10t-10 24v40q0 14 10 24t24 10h40z" />
<glyph unicode=";" horiz-adv-x="192" d="M54 76q5 14 18 23t27 9h39q14 0 21.5 -9t2.5 -23l-33 -97q-5 -14 -17.5 -23t-26.5 -9h-40q-14 0 -21 9t-2 23zM138 270q14 0 24 -10t10 -24v-40q0 -14 -10 -24t-24 -10h-39q-14 0 -24 10t-10 24v40q0 14 10 24t24 10h39z" />
<glyph unicode="&#x3c;" horiz-adv-x="435" d="M415 547l-198 -197l198 -198l-99 -98l-296 296l296 296l99 -99v0z" />
<glyph unicode="=" horiz-adv-x="363" d="M20 377v107h323v-107h-323zM20 161v108h323v-108h-323z" />
<glyph unicode="&#x3e;" horiz-adv-x="434" d="M20 152l197 198l-197 197l98 99l296 -296l-296 -296l-98 98v0z" />
<glyph unicode="?" d="M127 162h162v-162h-162v162zM343 700q45 0 84 -17t68 -46t46 -68t17 -84t-17 -84t-46 -68.5t-68 -46.5t-84 -17q-23 0 -38.5 -15.5t-15.5 -38.5h-162q0 45 17 84t46.5 68.5t68.5 46.5t84 17q23 0 38.5 15.5t15.5 38.5q0 22 -15.5 37.5t-38.5 15.5h-108q-23 0 -38.5 -15.5 t-15.5 -37.5h-161q0 45 17 84t46 68t68 46t84 17h108z" />
<glyph unicode="@" horiz-adv-x="701" d="M681 311q0 -32 -12.5 -60.5t-33.5 -49.5t-49.5 -33.5t-60.5 -12.5q-27 0 -52 9t-45 26q-20 -17 -44.5 -26t-52.5 -9q-32 0 -60.5 12.5t-49.5 33.5t-33.5 49.5t-12.5 60.5v78q0 32 12.5 60.5t33.5 49.5t49.5 33t60.5 12t60.5 -12t49.5 -33t33.5 -49.5t12.5 -60.5v-78 q0 -16 11 -27.5t27 -11.5q17 0 28 11.5t11 27.5v233q0 17 -11 28t-28 11h-350q-16 0 -27 -11t-11 -28v-389q0 -16 11 -27t27 -11h506v-117h-506q-32 0 -60.5 12.5t-49.5 33.5t-33 49t-12 60v389q0 32 12 60.5t33 49.5t49.5 33.5t60.5 12.5h350q32 0 60.5 -12.5t49.5 -33.5 t33.5 -49.5t12.5 -60.5v-233zM331 272q16 0 27.5 11.5t11.5 27.5v78q0 16 -11.5 27.5t-27.5 11.5q-17 0 -28 -11.5t-11 -27.5v-78q0 -16 11 -27.5t28 -11.5z" />
<glyph unicode="A" d="M558 0h-161l-108 402l-108 -402h-161l187 700h2h160h2l187 -700v0z" />
<glyph unicode="B" d="M558 485q0 -38 -12.5 -72.5t-34.5 -62.5q22 -28 34.5 -62.5t12.5 -72.5q0 -45 -17 -84t-46 -68t-68 -46t-84 -17h-162h-161v700h161h162q45 0 84 -17t68 -46t46 -68t17 -84zM181 538v-107h162q23 0 38.5 15.5t15.5 38.5q0 22 -15.5 37.5t-38.5 15.5h-162zM343 161 q23 0 38.5 16t15.5 38q0 23 -15.5 38.5t-38.5 15.5h-162v-108h162z" />
<glyph unicode="C" d="M343 161q23 0 38.5 16t15.5 38h161q0 -45 -17 -84t-46 -68t-68 -46t-84 -17h-108q-45 0 -84 17t-68 46t-46 68t-17 84v270q0 45 17 84t46 68t68 46t84 17h108q45 0 84 -17t68 -46t46 -68t17 -84h-161q0 22 -15.5 37.5t-38.5 15.5h-108q-23 0 -38.5 -15.5t-15.5 -37.5 v-270q0 -22 15.5 -38t38.5 -16h108v0z" />
<glyph unicode="D" d="M558 215q0 -45 -17 -84t-46 -68t-68 -46t-84 -17h-162h-161v700h161h162q45 0 84 -17t68 -46t46 -68t17 -84v-270zM397 485q0 22 -15.5 37.5t-38.5 15.5h-162v-377h162q23 0 38.5 16t15.5 38v270z" />
<glyph unicode="E" d="M235 538q-23 0 -38.5 -15.5t-15.5 -37.5v-54h377v-162h-377v-54q0 -22 15.5 -38t38.5 -16h323v-161h-323q-45 0 -84 17t-68 46t-46 68t-17 84v270q0 45 17 84t46 68t68 46t84 17h323v-162h-323v0z" />
<glyph unicode="F" d="M235 538q-23 0 -38.5 -15.5t-15.5 -37.5v-54h377v-162h-377v-269h-161v485q0 45 17 84t46 68t68 46t84 17h323v-162h-323v0z" />
<glyph unicode="G" d="M343 431h215v-162v-54q0 -45 -17 -84t-46 -68t-68 -46t-84 -17h-108q-45 0 -84 17t-68 46t-46 68t-17 84v270q0 45 17 84t46 68t68 46t84 17h108q45 0 84 -17t68 -46t46 -68t17 -84h-161q0 22 -15.5 37.5t-38.5 15.5h-108q-23 0 -38.5 -15.5t-15.5 -37.5v-270 q0 -22 15.5 -38t38.5 -16h108q23 0 38.5 16t15.5 38v54h-54v162z" />
<glyph unicode="H" d="M397 700h161v-700h-161v269h-216v-269h-161v700h161v-269h216v269v0z" />
<glyph unicode="I" horiz-adv-x="201" d="M20 700h161v-700h-161v700v0z" />
<glyph unicode="J" horiz-adv-x="256" d="M236 700v-485q0 -45 -17 -84t-46.5 -68t-68.5 -46t-84 -17v161q23 0 38.5 16t15.5 38v485h162z" />
<glyph unicode="K" d="M558 0h-161v215q0 23 -15.5 38.5t-38.5 15.5h-162v-269h-161v700h161v-269h54q23 0 38.5 15.5t15.5 38.5v215h161v-215q0 -41 -13 -76q54 -26 87.5 -77.5t33.5 -116.5v-215z" />
<glyph unicode="L" horiz-adv-x="417" d="M397 161v-161h-162q-45 0 -84 17t-68 46t-46 68t-17 84v485h162v-485q0 -22 15.5 -38t37.5 -16h162z" />
<glyph unicode="M" horiz-adv-x="740" d="M505 700q45 0 84 -17t68 -46t46 -68t17 -84v-485h-161v485q0 22 -15.5 37.5t-38.5 15.5t-38.5 -15.5t-15.5 -37.5v-485h-161v485q0 22 -15.5 37.5t-38.5 15.5t-38.5 -15.5t-15.5 -37.5v-485h-162v485q0 45 17 84t46.5 68t68.5 46t84 17q38 0 72.5 -12.5t61.5 -34.5 q28 22 62.5 34.5t72.5 12.5z" />
<glyph unicode="N" d="M20 485q0 45 17 84t46 68t68 46t84 17h108q45 0 84 -17t68 -46t46 -68t17 -84v-485h-161v485q0 22 -15.5 38t-38.5 16h-108q-23 0 -38.5 -16t-15.5 -38v-485h-161v485z" />
<glyph unicode="O" d="M343 700q45 0 84 -17t68 -46t46 -68t17 -84v-270q0 -45 -17 -84t-46 -68t-68 -46t-84 -17h-108q-45 0 -84 17t-68 46t-46 68t-17 84v270q0 45 17 84t46 68t68 46t84 17h108zM397 485q0 22 -15.5 37.5t-38.5 15.5h-108q-23 0 -38.5 -15.5t-15.5 -37.5v-270q0 -22 15.5 -38 t38.5 -16h108q23 0 38.5 16t15.5 38v270z" />
<glyph unicode="P" d="M343 700q45 0 84 -17t68 -46t46 -68t17 -84t-17 -84t-46 -68.5t-68 -46.5t-84 -17h-162v-269h-161v700h161h162zM343 431q23 0 38.5 15.5t15.5 38.5q0 22 -15.5 37.5t-38.5 15.5h-162v-107h162z" />
<glyph unicode="Q" d="M397 215v270q0 22 -15.5 37.5t-38.5 15.5h-108q-23 0 -38.5 -15.5t-15.5 -37.5v-270q0 -22 15.5 -38t38.5 -16h215l108 -161h-108h-215q-45 0 -84 17t-68 46t-46 68t-17 84v270q0 45 17 84t46 68t68 46t84 17h108q45 0 84 -17t68 -46t46 -68t17 -84v-270h-161z" />
<glyph unicode="R" d="M558 485q0 -38 -12.5 -72.5t-34.5 -62.5q22 -28 34.5 -62.5t12.5 -72.5v-215h-161v215q0 23 -15.5 38.5t-38.5 15.5h-162v-269h-161v700h161h162q45 0 84 -17t68 -46t46 -68t17 -84zM343 431q23 0 38.5 15.5t15.5 38.5q0 22 -15.5 37.5t-38.5 15.5h-162v-107h162z" />
<glyph unicode="S" d="M343 431q45 0 84 -17t68 -46.5t46 -68.5t17 -84t-17 -84t-46 -68t-68 -46t-84 -17h-323v161h323q23 1 38.5 16.5t15.5 37.5q0 23 -15.5 38.5t-38.5 15.5h-108q-45 0 -84 17t-68 46.5t-46 68.5t-17 84t17 84t46 68t68 46t84 17h215v-162h-215q-23 0 -38.5 -15.5 t-15.5 -37.5q0 -23 15.5 -38.5t38.5 -15.5h108v0z" />
<glyph unicode="T" horiz-adv-x="525" d="M505 700v-162h-162v-538h-161v538h-162v162h485v0z" />
<glyph unicode="U" d="M558 215q0 -45 -17 -84t-46 -68t-68 -46t-84 -17h-108q-45 0 -84 17t-68 46t-46 68t-17 84v485h161v-485q0 -22 15.5 -38t38.5 -16h108q23 0 38.5 16t15.5 38v485h161v-485z" />
<glyph unicode="V" d="M397 700h161l-187 -700h-2h-160h-2l-187 700h161l108 -402l108 402v0z" />
<glyph unicode="W" horiz-adv-x="740" d="M720 700v-485q0 -45 -17 -84t-46 -68t-68 -46t-84 -17q-38 0 -72.5 12.5t-62.5 34.5q-27 -22 -61.5 -34.5t-72.5 -12.5q-45 0 -84 17t-68.5 46t-46.5 68t-17 84v485h162v-485q0 -22 15.5 -38t38.5 -16t38.5 16t15.5 38v216h161v-216q0 -22 15.5 -38t38.5 -16t38.5 16 t15.5 38v485h161z" />
<glyph unicode="X" d="M558 700l-161 -350l161 -350h-184l-85 215l-85 -215h-184l161 350l-161 350h184l85 -215l85 215h184v0z" />
<glyph unicode="Y" horiz-adv-x="525" d="M339 700h166l-162 -377v-323h-161v323l-162 377h166l76 -215l77 215v0z" />
<glyph unicode="Z" horiz-adv-x="470" d="M450 538v0l-269 -376h269v-162h-430v162v0l269 376h-269v162h430v-162v0z" />
<glyph unicode="[" horiz-adv-x="256" d="M182 161h54v-161h-162q-23 0 -38.5 15.5t-15.5 38.5v592q0 23 15.5 38.5t38.5 15.5h162v-162h-54v-377z" />
<glyph unicode="\" horiz-adv-x="391" d="M371 0h-164l-187 700h161l190 -700v0z" />
<glyph unicode="]" horiz-adv-x="256" d="M74 539h-54v161h162q23 0 38.5 -15.5t15.5 -38.5v-592q0 -23 -15.5 -38.5t-38.5 -15.5h-162v162h54v377z" />
<glyph unicode="^" horiz-adv-x="251" d="M26 773q-6 4 -6 9.5t6 10.5l84 56q7 4 15.5 4t15.5 -4l84 -56q6 -5 6 -10.5t-6 -9.5l-27 -19q-6 -4 -15 -4t-15 4l-27 19q-7 4 -15.5 4t-15.5 -4l-27 -19q-6 -4 -15 -4t-15 4z" />
<glyph unicode="_" horiz-adv-x="417" d="M397 107v-107h-377v107h377v0z" />
<glyph unicode="`" horiz-adv-x="183" d="M52 890q6 9 14 9t14 -9l80 -119q5 -9 2 -15t-14 -6h-57q-11 0 -22 6t-17 15l-26 38q-6 9 -6 21.5t6 21.5z" />
<glyph unicode="a" d="M397 0l-108 402l-108 -402h-161l187 700h2h160h2l187 -700h-161z" />
<glyph unicode="b" d="M558 485q0 -38 -12.5 -72.5t-34.5 -62.5q22 -28 34.5 -62.5t12.5 -72.5q0 -45 -17 -84t-46 -68t-68 -46t-84 -17h-162h-161v700h161h162q45 0 84 -17t68 -46t46 -68t17 -84zM181 538v-107h162q23 0 38.5 15.5t15.5 38.5q0 22 -15.5 37.5t-38.5 15.5h-162zM343 161 q23 0 38.5 16t15.5 38q0 23 -15.5 38.5t-38.5 15.5h-162v-108h162z" />
<glyph unicode="c" d="M343 161q23 0 38.5 16t15.5 38h161q0 -45 -17 -84t-46 -68t-68 -46t-84 -17h-108q-45 0 -84 17t-68 46t-46 68t-17 84v270q0 45 17 84t46 68t68 46t84 17h108q45 0 84 -17t68 -46t46 -68t17 -84h-161q0 22 -15.5 37.5t-38.5 15.5h-108q-23 0 -38.5 -15.5t-15.5 -37.5 v-270q0 -22 15.5 -38t38.5 -16h108v0z" />
<glyph unicode="d" d="M558 215q0 -45 -17 -84t-46 -68t-68 -46t-84 -17h-162h-161v700h161h162q45 0 84 -17t68 -46t46 -68t17 -84v-270zM397 485q0 22 -15.5 37.5t-38.5 15.5h-162v-377h162q23 0 38.5 16t15.5 38v270z" />
<glyph unicode="e" d="M235 538q-23 0 -38.5 -15.5t-15.5 -37.5v-54h377v-162h-377v-54q0 -22 15.5 -38t38.5 -16h323v-161h-323q-45 0 -84 17t-68 46t-46 68t-17 84v270q0 45 17 84t46 68t68 46t84 17h323v-162h-323v0z" />
<glyph unicode="f" d="M235 538q-23 0 -38.5 -15.5t-15.5 -37.5v-54h377v-162h-377v-269h-161v485q0 45 17 84t46 68t68 46t84 17h323v-162h-323v0z" />
<glyph unicode="g" d="M343 431h215v-162v-54q0 -45 -17 -84t-46 -68t-68 -46t-84 -17h-108q-45 0 -84 17t-68 46t-46 68t-17 84v270q0 45 17 84t46 68t68 46t84 17h108q45 0 84 -17t68 -46t46 -68t17 -84h-161q0 22 -15.5 37.5t-38.5 15.5h-108q-23 0 -38.5 -15.5t-15.5 -37.5v-270 q0 -22 15.5 -38t38.5 -16h108q23 0 38.5 16t15.5 38v54h-54v162z" />
<glyph unicode="h" d="M397 700h161v-700h-161v269h-216v-269h-161v700h161v-269h216v269v0z" />
<glyph unicode="i" horiz-adv-x="201" d="M20 700h161v-700h-161v700v0z" />
<glyph unicode="j" horiz-adv-x="256" d="M236 700v-485q0 -45 -17 -84t-46.5 -68t-68.5 -46t-84 -17v161q23 0 38.5 16t15.5 38v485h162z" />
<glyph unicode="k" d="M558 0h-161v215q0 23 -15.5 38.5t-38.5 15.5h-162v-269h-161v700h161v-269h54q23 0 38.5 15.5t15.5 38.5v215h161v-215q0 -41 -13 -76q54 -26 87.5 -77.5t33.5 -116.5v-215z" />
<glyph unicode="l" horiz-adv-x="417" d="M397 161v-161h-162q-45 0 -84 17t-68 46t-46 68t-17 84v485h162v-485q0 -22 15.5 -38t37.5 -16h162z" />
<glyph unicode="m" horiz-adv-x="740" d="M505 700q45 0 84 -17t68 -46t46 -68t17 -84v-485h-161v485q0 22 -15.5 37.5t-38.5 15.5t-38.5 -15.5t-15.5 -37.5v-485h-161v485q0 22 -15.5 37.5t-38.5 15.5t-38.5 -15.5t-15.5 -37.5v-485h-162v485q0 45 17 84t46.5 68t68.5 46t84 17q38 0 72.5 -12.5t61.5 -34.5 q28 22 62.5 34.5t72.5 12.5z" />
<glyph unicode="n" d="M20 485q0 45 17 84t46 68t68 46t84 17h108q45 0 84 -17t68 -46t46 -68t17 -84v-485h-161v485q0 22 -15.5 38t-38.5 16h-108q-23 0 -38.5 -16t-15.5 -38v-485h-161v485z" />
<glyph unicode="o" d="M343 700q45 0 84 -17t68 -46t46 -68t17 -84v-270q0 -45 -17 -84t-46 -68t-68 -46t-84 -17h-108q-45 0 -84 17t-68 46t-46 68t-17 84v270q0 45 17 84t46 68t68 46t84 17h108zM397 485q0 22 -15.5 37.5t-38.5 15.5h-108q-23 0 -38.5 -15.5t-15.5 -37.5v-270q0 -22 15.5 -38 t38.5 -16h108q23 0 38.5 16t15.5 38v270z" />
<glyph unicode="p" d="M343 700q45 0 84 -17t68 -46t46 -68t17 -84t-17 -84t-46 -68.5t-68 -46.5t-84 -17h-162v-269h-161v700h161h162zM343 431q23 0 38.5 15.5t15.5 38.5q0 22 -15.5 37.5t-38.5 15.5h-162v-107h162z" />
<glyph unicode="q" d="M397 215v270q0 22 -15.5 37.5t-38.5 15.5h-108q-23 0 -38.5 -15.5t-15.5 -37.5v-270q0 -22 15.5 -38t38.5 -16h215l108 -161h-108h-215q-45 0 -84 17t-68 46t-46 68t-17 84v270q0 45 17 84t46 68t68 46t84 17h108q45 0 84 -17t68 -46t46 -68t17 -84v-270h-161z" />
<glyph unicode="r" d="M558 485q0 -38 -12.5 -72.5t-34.5 -62.5q22 -28 34.5 -62.5t12.5 -72.5v-215h-161v215q0 23 -15.5 38.5t-38.5 15.5h-162v-269h-161v700h161h162q45 0 84 -17t68 -46t46 -68t17 -84zM343 431q23 0 38.5 15.5t15.5 38.5q0 22 -15.5 37.5t-38.5 15.5h-162v-107h162z" />
<glyph unicode="s" d="M343 431q45 0 84 -17t68 -46.5t46 -68.5t17 -84t-17 -84t-46 -68t-68 -46t-84 -17h-323v161h323q23 1 38.5 16.5t15.5 37.5q0 23 -15.5 38.5t-38.5 15.5h-108q-45 0 -84 17t-68 46.5t-46 68.5t-17 84t17 84t46 68t68 46t84 17h215v-162h-215q-23 0 -38.5 -15.5 t-15.5 -37.5q0 -23 15.5 -38.5t38.5 -15.5h108v0z" />
<glyph unicode="t" horiz-adv-x="525" d="M505 700v-162h-162v-538h-161v538h-162v162h485v0z" />
<glyph unicode="u" d="M558 215q0 -45 -17 -84t-46 -68t-68 -46t-84 -17h-108q-45 0 -84 17t-68 46t-46 68t-17 84v485h161v-485q0 -22 15.5 -38t38.5 -16h108q23 0 38.5 16t15.5 38v485h161v-485z" />
<glyph unicode="v" d="M397 700h161l-187 -700h-2h-160h-2l-187 700h161l108 -402l108 402v0z" />
<glyph unicode="w" horiz-adv-x="740" d="M720 700v-485q0 -45 -17 -84t-46 -68t-68 -46t-84 -17q-38 0 -72.5 12.5t-62.5 34.5q-27 -22 -61.5 -34.5t-72.5 -12.5q-45 0 -84 17t-68.5 46t-46.5 68t-17 84v485h162v-485q0 -22 15.5 -38t38.5 -16t38.5 16t15.5 38v216h161v-216q0 -22 15.5 -38t38.5 -16t38.5 16 t15.5 38v485h161z" />
<glyph unicode="x" d="M558 700l-161 -350l161 -350h-184l-85 215l-85 -215h-184l161 350l-161 350h184l85 -215l85 215h184v0z" />
<glyph unicode="y" horiz-adv-x="525" d="M339 700h166l-162 -377v-323h-161v323l-162 377h166l76 -215l77 215v0z" />
<glyph unicode="z" horiz-adv-x="470" d="M450 538v0l-269 -376h269v-162h-430v162v0l269 376h-269v162h430v-162v0z" />
<glyph unicode="{" horiz-adv-x="309" d="M289 0q-45 0 -84 17t-68 46t-46 68t-17 84q0 23 -15.5 38.5t-38.5 15.5v162q23 0 38.5 15.5t15.5 38.5q0 45 17 84t46 68t68 46t84 17v-162q-23 0 -38.5 -15.5t-15.5 -37.5q0 -38 -12.5 -72.5t-34.5 -62.5q22 -28 34.5 -62.5t12.5 -72.5q0 -22 15.5 -38t38.5 -16v-161z " />
<glyph unicode="|" horiz-adv-x="148" d="M20 750h108v-800h-108v800v0z" />
<glyph unicode="}" horiz-adv-x="309" d="M20 700q45 0 84 -17t68 -46t46 -68t17 -84q0 -23 15.5 -38.5t38.5 -15.5v-162q-23 0 -38.5 -15.5t-15.5 -38.5q0 -45 -17 -84t-46 -68t-68 -46t-84 -17v161q23 0 38.5 16t15.5 38q0 38 12 72.5t35 62.5q-23 28 -35 62.5t-12 72.5q0 22 -15.5 37.5t-38.5 15.5v162z" />
<glyph unicode="~" horiz-adv-x="265" d="M217 786q-5 -4 -12.5 -8.5t-12.5 -8.5l-23 -15q-5 -4 -12.5 -4t-12.5 4l-23 15q-5 4 -12.5 4t-12.5 -4l-23 -15q-5 -4 -12 -4t-12 4l-23 15q-12 8 0 17l23 15q5 4 12.5 8.5t12.5 8.5l22 15q12 7 25 0l23 -15q5 -4 12.5 -4t12.5 4l23 15q5 3 12.5 3t12.5 -3l22 -15 q12 -9 0 -17z" />
<glyph unicode="&#xa8;" horiz-adv-x="229" d="M183 831q11 0 18.5 -7.5t7.5 -18.5v-30q0 -11 -7.5 -18t-18.5 -7h-30q-11 0 -18 7t-7 18v30q0 11 7 18.5t18 7.5h30zM76 831q11 0 18 -7.5t7 -18.5v-30q0 -11 -7 -18t-18 -7h-30q-11 0 -18.5 7t-7.5 18v30q0 11 7.5 18.5t18.5 7.5h30z" />
<glyph unicode="&#xad;" horiz-adv-x="363" d="M20 269v108h323v-108h-323v0z" />
<glyph unicode="&#xb4;" horiz-adv-x="184" d="M158 852q5 -8 5 -21t-5 -21l-26 -39q-6 -8 -17.5 -14.5t-22.5 -6.5h-56q-11 0 -14.5 6.5t2.5 14.5l80 120q5 8 13.5 8t14.5 -8z" />
<glyph unicode="&#xc0;" d="M558 0h-161l-108 402l-108 -402h-161l187 700h2h160h2l187 -700v0zM218 890q6 9 14 9t14 -9l80 -119q5 -9 2 -15t-14 -6h-57q-11 0 -22 6t-17 15l-26 38q-6 9 -6 21.5t6 21.5z" />
<glyph unicode="&#xc1;" d="M558 0h-161l-108 402l-108 -402h-161l187 700h2h160h2l187 -700v0zM386 852q5 -8 5 -21t-5 -21l-26 -39q-6 -8 -17.5 -14.5t-22.5 -6.5h-56q-11 0 -14.5 6.5t2.5 14.5l80 120q5 8 13.5 8t14.5 -8z" />
<glyph unicode="&#xc2;" d="M188 773q-6 4 -6 9.5t6 10.5l84 56q7 4 15.5 4t15.5 -4l84 -56q6 -5 6 -10.5t-6 -9.5l-27 -19q-6 -4 -15 -4t-15 4l-27 19q-7 4 -15.5 4t-15.5 -4l-27 -19q-6 -4 -15 -4t-15 4zM558 0l-187 700h-2h-160h-2l-187 -700h161l108 402l108 -402h161z" />
<glyph unicode="&#xc3;" d="M558 0h-161l-108 402l-108 -402h-161l187 700h2h160h2l187 -700v0zM373 786q-5 -4 -12.5 -8.5t-12.5 -8.5l-23 -15q-5 -4 -12.5 -4t-12.5 4l-23 15q-5 4 -12.5 4t-12.5 -4l-23 -15q-5 -4 -12 -4t-12 4l-23 15q-12 8 0 17l23 15q5 4 12.5 8.5t12.5 8.5l22 15q12 7 25 0 l23 -15q5 -4 12.5 -4t12.5 4l23 15q5 3 12.5 3t12.5 -3l22 -15q12 -9 0 -17z" />
<glyph unicode="&#xc4;" d="M558 0h-161l-108 402l-108 -402h-161l187 700h2h160h2l187 -700v0zM357 831q11 0 18.5 -7.5t7.5 -18.5v-30q0 -11 -7.5 -18t-18.5 -7h-30q-11 0 -18 7t-7 18v30q0 11 7 18.5t18 7.5h30zM250 831q11 0 18 -7.5t7 -18.5v-30q0 -11 -7 -18t-18 -7h-30q-11 0 -18.5 7t-7.5 18 v30q0 11 7.5 18.5t18.5 7.5h30z" />
<glyph unicode="&#xc7;" d="M343 161q23 0 38.5 16t15.5 38h161q0 -45 -17 -84t-46 -68t-68 -46t-84 -17v-50h-108v50q-45 0 -84 17t-68 46t-46 68t-17 84v270q0 45 17 84t46 68t68 46t84 17h108q45 0 84 -17t68 -46t46 -68t17 -84h-161q0 22 -15.5 37.5t-38.5 15.5h-108q-23 0 -38.5 -15.5 t-15.5 -37.5v-270q0 -22 15.5 -38t38.5 -16h108v0z" />
<glyph unicode="&#xc8;" d="M235 538q-23 0 -38.5 -15.5t-15.5 -37.5v-54h377v-162h-377v-54q0 -22 15.5 -38t38.5 -16h323v-161h-323q-45 0 -84 17t-68 46t-46 68t-17 84v270q0 45 17 84t46 68t68 46t84 17h323v-162h-323v0zM278 890q6 9 14 9t14 -9l80 -119q5 -9 2 -15t-14 -6h-57q-11 0 -22 6 t-17 15l-26 38q-6 9 -6 21.5t6 21.5z" />
<glyph unicode="&#xc9;" d="M235 538q-23 0 -38.5 -15.5t-15.5 -37.5v-54h377v-162h-377v-54q0 -22 15.5 -38t38.5 -16h323v-161h-323q-45 0 -84 17t-68 46t-46 68t-17 84v270q0 45 17 84t46 68t68 46t84 17h323v-162h-323v0zM386 852q5 -8 5 -21t-5 -21l-26 -39q-6 -8 -17.5 -14.5t-22.5 -6.5h-56 q-11 0 -14.5 6.5t2.5 14.5l80 120q5 8 13.5 8t14.5 -8z" />
<glyph unicode="&#xca;" d="M218 773q-6 4 -6 9.5t6 10.5l84 56q7 4 15.5 4t15.5 -4l84 -56q6 -5 6 -10.5t-6 -9.5l-27 -19q-6 -4 -15 -4t-15 4l-27 19q-7 4 -15.5 4t-15.5 -4l-27 -19q-6 -4 -15 -4t-15 4zM235 538h323v162h-323q-45 0 -84 -17t-68 -46t-46 -68t-17 -84v-270q0 -45 17 -84t46 -68 t68 -46t84 -17h323v161h-323q-23 0 -38.5 16t-15.5 38v54h377v162h-377v54q0 22 15.5 37.5t38.5 15.5z" />
<glyph unicode="&#xcb;" d="M235 538q-23 0 -38.5 -15.5t-15.5 -37.5v-54h377v-162h-377v-54q0 -22 15.5 -38t38.5 -16h323v-161h-323q-45 0 -84 17t-68 46t-46 68t-17 84v270q0 45 17 84t46 68t68 46t84 17h323v-162h-323v0zM387 831q11 0 18.5 -7.5t7.5 -18.5v-30q0 -11 -7.5 -18t-18.5 -7h-30 q-11 0 -18 7t-7 18v30q0 11 7 18.5t18 7.5h30zM280 831q11 0 18 -7.5t7 -18.5v-30q0 -11 -7 -18t-18 -7h-30q-11 0 -18.5 7t-7.5 18v30q0 11 7.5 18.5t18.5 7.5h30z" />
<glyph unicode="&#xcc;" horiz-adv-x="201" d="M20 700h161v-700h-161v700v0zM60 890q6 9 14 9t14 -9l80 -119q5 -9 2 -15t-14 -6h-57q-11 0 -22 6t-17 15l-26 38q-6 9 -6 21.5t6 21.5z" />
<glyph unicode="&#xcd;" horiz-adv-x="201" d="M20 700h161v-700h-161v700v0zM168 852q5 -8 5 -21t-5 -21l-26 -39q-6 -8 -17.5 -14.5t-22.5 -6.5h-56q-11 0 -14.5 6.5t2.5 14.5l80 120q5 8 13.5 8t14.5 -8z" />
<glyph unicode="&#xce;" horiz-adv-x="201" d="M1 773q-6 4 -6 9.5t6 10.5l84 56q7 4 15.5 4t15.5 -4l84 -56q6 -5 6 -10.5t-6 -9.5l-27 -19q-6 -4 -15 -4t-15 4l-27 19q-7 4 -15.5 4t-15.5 -4l-27 -19q-6 -4 -15 -4t-15 4zM20 700v-700h161v700h-161z" />
<glyph unicode="&#xcf;" horiz-adv-x="201" d="M20 700h161v-700h-161v700v0zM170 831q11 0 18.5 -7.5t7.5 -18.5v-30q0 -11 -7.5 -18t-18.5 -7h-30q-11 0 -18 7t-7 18v30q0 11 7 18.5t18 7.5h30zM63 831q11 0 18 -7.5t7 -18.5v-30q0 -11 -7 -18t-18 -7h-30q-11 0 -18.5 7t-7.5 18v30q0 11 7.5 18.5t18.5 7.5h30z" />
<glyph unicode="&#xd1;" horiz-adv-x="470" d="M20 485q0 45 17 84t46 68t68 46t84 17h108q45 0 84 -17t68 -46t46 -68t17 -84v-485h-161v485q0 22 -15.5 38t-38.5 16h-108q-23 0 -38.5 -16t-15.5 -38v-485h-161v485zM319 786q-5 -4 -12.5 -8.5t-12.5 -8.5l-23 -15q-5 -4 -12.5 -4t-12.5 4l-23 15q-5 4 -12.5 4 t-12.5 -4l-23 -15q-5 -4 -12 -4t-12 4l-23 15q-12 8 0 17l23 15q5 4 12.5 8.5t12.5 8.5l22 15q12 7 25 0l23 -15q5 -4 12.5 -4t12.5 4l23 15q5 3 12.5 3t12.5 -3l22 -15q12 -9 0 -17z" />
<glyph unicode="&#xd2;" d="M343 700q45 0 84 -17t68 -46t46 -68t17 -84v-270q0 -45 -17 -84t-46 -68t-68 -46t-84 -17h-108q-45 0 -84 17t-68 46t-46 68t-17 84v270q0 45 17 84t46 68t68 46t84 17h108zM397 485q0 22 -15.5 37.5t-38.5 15.5h-108q-23 0 -38.5 -15.5t-15.5 -37.5v-270q0 -22 15.5 -38 t38.5 -16h108q23 0 38.5 16t15.5 38v270zM248 890q6 9 14 9t14 -9l80 -119q5 -9 2 -15t-14 -6h-57q-11 0 -22 6t-17 15l-26 38q-6 9 -6 21.5t6 21.5z" />
<glyph unicode="&#xd3;" d="M343 700q45 0 84 -17t68 -46t46 -68t17 -84v-270q0 -45 -17 -84t-46 -68t-68 -46t-84 -17h-108q-45 0 -84 17t-68 46t-46 68t-17 84v270q0 45 17 84t46 68t68 46t84 17h108zM397 485q0 22 -15.5 37.5t-38.5 15.5h-108q-23 0 -38.5 -15.5t-15.5 -37.5v-270q0 -22 15.5 -38 t38.5 -16h108q23 0 38.5 16t15.5 38v270zM356 852q5 -8 5 -21t-5 -21l-26 -39q-6 -8 -17.5 -14.5t-22.5 -6.5h-56q-11 0 -14.5 6.5t2.5 14.5l80 120q5 8 13.5 8t14.5 -8z" />
<glyph unicode="&#xd4;" d="M188 773q-6 4 -6 9.5t6 10.5l84 56q7 4 15.5 4t15.5 -4l84 -56q6 -5 6 -10.5t-6 -9.5l-27 -19q-6 -4 -15 -4t-15 4l-27 19q-7 4 -15.5 4t-15.5 -4l-27 -19q-6 -4 -15 -4t-15 4zM343 700h-108q-45 0 -84 -17t-68 -46t-46 -68t-17 -84v-270q0 -45 17 -84t46 -68t68 -46 t84 -17h108q45 0 84 17t68 46t46 68t17 84v270q0 45 -17 84t-46 68t-68 46t-84 17zM397 215q0 -22 -15.5 -38t-38.5 -16h-108q-23 0 -38.5 16t-15.5 38v270q0 22 15.5 37.5t38.5 15.5h108q23 0 38.5 -15.5t15.5 -37.5v-270z" />
<glyph unicode="&#xd5;" d="M343 700q45 0 84 -17t68 -46t46 -68t17 -84v-270q0 -45 -17 -84t-46 -68t-68 -46t-84 -17h-108q-45 0 -84 17t-68 46t-46 68t-17 84v270q0 45 17 84t46 68t68 46t84 17h108zM397 485q0 22 -15.5 37.5t-38.5 15.5h-108q-23 0 -38.5 -15.5t-15.5 -37.5v-270q0 -22 15.5 -38 t38.5 -16h108q23 0 38.5 16t15.5 38v270zM373 786q-5 -4 -12.5 -8.5t-12.5 -8.5l-23 -15q-5 -4 -12.5 -4t-12.5 4l-23 15q-5 4 -12.5 4t-12.5 -4l-23 -15q-5 -4 -12 -4t-12 4l-23 15q-12 8 0 17l23 15q5 4 12.5 8.5t12.5 8.5l22 15q12 7 25 0l23 -15q5 -4 12.5 -4t12.5 4 l23 15q5 3 12.5 3t12.5 -3l22 -15q12 -9 0 -17z" />
<glyph unicode="&#xd6;" d="M343 700q45 0 84 -17t68 -46t46 -68t17 -84v-270q0 -45 -17 -84t-46 -68t-68 -46t-84 -17h-108q-45 0 -84 17t-68 46t-46 68t-17 84v270q0 45 17 84t46 68t68 46t84 17h108zM397 485q0 22 -15.5 37.5t-38.5 15.5h-108q-23 0 -38.5 -15.5t-15.5 -37.5v-270q0 -22 15.5 -38 t38.5 -16h108q23 0 38.5 16t15.5 38v270zM357 831q11 0 18.5 -7.5t7.5 -18.5v-30q0 -11 -7.5 -18t-18.5 -7h-30q-11 0 -18 7t-7 18v30q0 11 7 18.5t18 7.5h30zM250 831q11 0 18 -7.5t7 -18.5v-30q0 -11 -7 -18t-18 -7h-30q-11 0 -18.5 7t-7.5 18v30q0 11 7.5 18.5t18.5 7.5 h30z" />
<glyph unicode="&#xd7;" horiz-adv-x="344" d="M248 475l76 -76l-76 -76l76 -76l-76 -77l-76 77l-76 -77l-76 77l76 76l-76 76l76 76l76 -76l76 76v0z" />
<glyph unicode="&#xd9;" d="M558 215q0 -45 -17 -84t-46 -68t-68 -46t-84 -17h-108q-45 0 -84 17t-68 46t-46 68t-17 84v485h161v-485q0 -22 15.5 -38t38.5 -16h108q23 0 38.5 16t15.5 38v485h161v-485zM248 890q6 9 14 9t14 -9l80 -119q5 -9 2 -15t-14 -6h-57q-11 0 -22 6t-17 15l-26 38 q-6 9 -6 21.5t6 21.5z" />
<glyph unicode="&#xda;" d="M558 215q0 -45 -17 -84t-46 -68t-68 -46t-84 -17h-108q-45 0 -84 17t-68 46t-46 68t-17 84v485h161v-485q0 -22 15.5 -38t38.5 -16h108q23 0 38.5 16t15.5 38v485h161v-485zM356 852q5 -8 5 -21t-5 -21l-26 -39q-6 -8 -17.5 -14.5t-22.5 -6.5h-56q-11 0 -14.5 6.5 t2.5 14.5l80 120q5 8 13.5 8t14.5 -8z" />
<glyph unicode="&#xdb;" d="M188 773q-6 4 -6 9.5t6 10.5l84 56q7 4 15.5 4t15.5 -4l84 -56q6 -5 6 -10.5t-6 -9.5l-27 -19q-6 -4 -15 -4t-15 4l-27 19q-7 4 -15.5 4t-15.5 -4l-27 -19q-6 -4 -15 -4t-15 4zM558 700h-161v-485q0 -22 -15.5 -38t-38.5 -16h-108q-23 0 -38.5 16t-15.5 38v485h-161v-485 q0 -45 17 -84t46 -68t68 -46t84 -17h108q45 0 84 17t68 46t46 68t17 84v485z" />
<glyph unicode="&#xdc;" d="M558 215q0 -45 -17 -84t-46 -68t-68 -46t-84 -17h-108q-45 0 -84 17t-68 46t-46 68t-17 84v485h161v-485q0 -22 15.5 -38t38.5 -16h108q23 0 38.5 16t15.5 38v485h161v-485zM357 831q11 0 18.5 -7.5t7.5 -18.5v-30q0 -11 -7.5 -18t-18.5 -7h-30q-11 0 -18 7t-7 18v30 q0 11 7 18.5t18 7.5h30zM250 831q11 0 18 -7.5t7 -18.5v-30q0 -11 -7 -18t-18 -7h-30q-11 0 -18.5 7t-7.5 18v30q0 11 7.5 18.5t18.5 7.5h30z" />
<glyph unicode="&#xe0;" d="M558 0h-161l-108 402l-108 -402h-161l187 700h2h160h2l187 -700v0zM218 890q6 9 14 9t14 -9l80 -119q5 -9 2 -15t-14 -6h-57q-11 0 -22 6t-17 15l-26 38q-6 9 -6 21.5t6 21.5z" />
<glyph unicode="&#xe1;" d="M558 0h-161l-108 402l-108 -402h-161l187 700h2h160h2l187 -700v0zM386 852q5 -8 5 -21t-5 -21l-26 -39q-6 -8 -17.5 -14.5t-22.5 -6.5h-56q-11 0 -14.5 6.5t2.5 14.5l80 120q5 8 13.5 8t14.5 -8z" />
<glyph unicode="&#xe2;" d="M188 773q-6 4 -6 9.5t6 10.5l84 56q7 4 15.5 4t15.5 -4l84 -56q6 -5 6 -10.5t-6 -9.5l-27 -19q-6 -4 -15 -4t-15 4l-27 19q-7 4 -15.5 4t-15.5 -4l-27 -19q-6 -4 -15 -4t-15 4zM558 0l-187 700h-2h-160h-2l-187 -700h161l108 402l108 -402h161z" />
<glyph unicode="&#xe3;" d="M558 0h-161l-108 402l-108 -402h-161l187 700h2h160h2l187 -700v0zM373 786q-5 -4 -12.5 -8.5t-12.5 -8.5l-23 -15q-5 -4 -12.5 -4t-12.5 4l-23 15q-5 4 -12.5 4t-12.5 -4l-23 -15q-5 -4 -12 -4t-12 4l-23 15q-12 8 0 17l23 15q5 4 12.5 8.5t12.5 8.5l22 15q12 7 25 0 l23 -15q5 -4 12.5 -4t12.5 4l23 15q5 3 12.5 3t12.5 -3l22 -15q12 -9 0 -17z" />
<glyph unicode="&#xe4;" d="M558 0h-161l-108 402l-108 -402h-161l187 700h2h160h2l187 -700v0zM357 831q11 0 18.5 -7.5t7.5 -18.5v-30q0 -11 -7.5 -18t-18.5 -7h-30q-11 0 -18 7t-7 18v30q0 11 7 18.5t18 7.5h30zM250 831q11 0 18 -7.5t7 -18.5v-30q0 -11 -7 -18t-18 -7h-30q-11 0 -18.5 7t-7.5 18 v30q0 11 7.5 18.5t18.5 7.5h30z" />
<glyph unicode="&#xe7;" d="M343 161q23 0 38.5 16t15.5 38h161q0 -45 -17 -84t-46 -68t-68 -46t-84 -17v-50h-108v50q-45 0 -84 17t-68 46t-46 68t-17 84v270q0 45 17 84t46 68t68 46t84 17h108q45 0 84 -17t68 -46t46 -68t17 -84h-161q0 22 -15.5 37.5t-38.5 15.5h-108q-23 0 -38.5 -15.5 t-15.5 -37.5v-270q0 -22 15.5 -38t38.5 -16h108v0z" />
<glyph unicode="&#xe8;" d="M235 538q-23 0 -38.5 -15.5t-15.5 -37.5v-54h377v-162h-377v-54q0 -22 15.5 -38t38.5 -16h323v-161h-323q-45 0 -84 17t-68 46t-46 68t-17 84v270q0 45 17 84t46 68t68 46t84 17h323v-162h-323v0zM278 890q6 9 14 9t14 -9l80 -119q5 -9 2 -15t-14 -6h-57q-11 0 -22 6 t-17 15l-26 38q-6 9 -6 21.5t6 21.5z" />
<glyph unicode="&#xe9;" d="M235 538q-23 0 -38.5 -15.5t-15.5 -37.5v-54h377v-162h-377v-54q0 -22 15.5 -38t38.5 -16h323v-161h-323q-45 0 -84 17t-68 46t-46 68t-17 84v270q0 45 17 84t46 68t68 46t84 17h323v-162h-323v0zM386 852q5 -8 5 -21t-5 -21l-26 -39q-6 -8 -17.5 -14.5t-22.5 -6.5h-56 q-11 0 -14.5 6.5t2.5 14.5l80 120q5 8 13.5 8t14.5 -8z" />
<glyph unicode="&#xea;" d="M218 773q-6 4 -6 9.5t6 10.5l84 56q7 4 15.5 4t15.5 -4l84 -56q6 -5 6 -10.5t-6 -9.5l-27 -19q-6 -4 -15 -4t-15 4l-27 19q-7 4 -15.5 4t-15.5 -4l-27 -19q-6 -4 -15 -4t-15 4zM235 538h323v162h-323q-45 0 -84 -17t-68 -46t-46 -68t-17 -84v-270q0 -45 17 -84t46 -68 t68 -46t84 -17h323v161h-323q-23 0 -38.5 16t-15.5 38v54h377v162h-377v54q0 22 15.5 37.5t38.5 15.5z" />
<glyph unicode="&#xeb;" d="M235 538q-23 0 -38.5 -15.5t-15.5 -37.5v-54h377v-162h-377v-54q0 -22 15.5 -38t38.5 -16h323v-161h-323q-45 0 -84 17t-68 46t-46 68t-17 84v270q0 45 17 84t46 68t68 46t84 17h323v-162h-323v0zM387 831q11 0 18.5 -7.5t7.5 -18.5v-30q0 -11 -7.5 -18t-18.5 -7h-30 q-11 0 -18 7t-7 18v30q0 11 7 18.5t18 7.5h30zM280 831q11 0 18 -7.5t7 -18.5v-30q0 -11 -7 -18t-18 -7h-30q-11 0 -18.5 7t-7.5 18v30q0 11 7.5 18.5t18.5 7.5h30z" />
<glyph unicode="&#xec;" horiz-adv-x="201" d="M20 700h161v-700h-161v700v0zM60 890q6 9 14 9t14 -9l80 -119q5 -9 2 -15t-14 -6h-57q-11 0 -22 6t-17 15l-26 38q-6 9 -6 21.5t6 21.5z" />
<glyph unicode="&#xed;" horiz-adv-x="201" d="M20 700h161v-700h-161v700v0zM168 852q5 -8 5 -21t-5 -21l-26 -39q-6 -8 -17.5 -14.5t-22.5 -6.5h-56q-11 0 -14.5 6.5t2.5 14.5l80 120q5 8 13.5 8t14.5 -8z" />
<glyph unicode="&#xee;" horiz-adv-x="201" d="M1 773q-6 4 -6 9.5t6 10.5l84 56q7 4 15.5 4t15.5 -4l84 -56q6 -5 6 -10.5t-6 -9.5l-27 -19q-6 -4 -15 -4t-15 4l-27 19q-7 4 -15.5 4t-15.5 -4l-27 -19q-6 -4 -15 -4t-15 4zM20 700v-700h161v700h-161z" />
<glyph unicode="&#xef;" horiz-adv-x="201" d="M20 700h161v-700h-161v700v0zM170 831q11 0 18.5 -7.5t7.5 -18.5v-30q0 -11 -7.5 -18t-18.5 -7h-30q-11 0 -18 7t-7 18v30q0 11 7 18.5t18 7.5h30zM63 831q11 0 18 -7.5t7 -18.5v-30q0 -11 -7 -18t-18 -7h-30q-11 0 -18.5 7t-7.5 18v30q0 11 7.5 18.5t18.5 7.5h30z" />
<glyph unicode="&#xf1;" d="M20 485q0 45 17 84t46 68t68 46t84 17h108q45 0 84 -17t68 -46t46 -68t17 -84v-485h-161v485q0 22 -15.5 38t-38.5 16h-108q-23 0 -38.5 -16t-15.5 -38v-485h-161v485zM374 786q-5 -4 -12.5 -8.5t-12.5 -8.5l-23 -15q-5 -4 -12.5 -4t-12.5 4l-23 15q-5 4 -12.5 4 t-12.5 -4l-23 -15q-5 -4 -12 -4t-12 4l-23 15q-12 8 0 17l23 15q5 4 12.5 8.5t12.5 8.5l22 15q12 7 25 0l23 -15q5 -4 12.5 -4t12.5 4l23 15q5 3 12.5 3t12.5 -3l22 -15q12 -9 0 -17z" />
<glyph unicode="&#xf2;" d="M343 700q45 0 84 -17t68 -46t46 -68t17 -84v-270q0 -45 -17 -84t-46 -68t-68 -46t-84 -17h-108q-45 0 -84 17t-68 46t-46 68t-17 84v270q0 45 17 84t46 68t68 46t84 17h108zM397 485q0 22 -15.5 37.5t-38.5 15.5h-108q-23 0 -38.5 -15.5t-15.5 -37.5v-270q0 -22 15.5 -38 t38.5 -16h108q23 0 38.5 16t15.5 38v270zM248 890q6 9 14 9t14 -9l80 -119q5 -9 2 -15t-14 -6h-57q-11 0 -22 6t-17 15l-26 38q-6 9 -6 21.5t6 21.5z" />
<glyph unicode="&#xf3;" d="M343 700q45 0 84 -17t68 -46t46 -68t17 -84v-270q0 -45 -17 -84t-46 -68t-68 -46t-84 -17h-108q-45 0 -84 17t-68 46t-46 68t-17 84v270q0 45 17 84t46 68t68 46t84 17h108zM397 485q0 22 -15.5 37.5t-38.5 15.5h-108q-23 0 -38.5 -15.5t-15.5 -37.5v-270q0 -22 15.5 -38 t38.5 -16h108q23 0 38.5 16t15.5 38v270zM356 852q5 -8 5 -21t-5 -21l-26 -39q-6 -8 -17.5 -14.5t-22.5 -6.5h-56q-11 0 -14.5 6.5t2.5 14.5l80 120q5 8 13.5 8t14.5 -8z" />
<glyph unicode="&#xf4;" d="M188 773q-6 4 -6 9.5t6 10.5l84 56q7 4 15.5 4t15.5 -4l84 -56q6 -5 6 -10.5t-6 -9.5l-27 -19q-6 -4 -15 -4t-15 4l-27 19q-7 4 -15.5 4t-15.5 -4l-27 -19q-6 -4 -15 -4t-15 4zM343 700h-108q-45 0 -84 -17t-68 -46t-46 -68t-17 -84v-270q0 -45 17 -84t46 -68t68 -46 t84 -17h108q45 0 84 17t68 46t46 68t17 84v270q0 45 -17 84t-46 68t-68 46t-84 17zM397 215q0 -22 -15.5 -38t-38.5 -16h-108q-23 0 -38.5 16t-15.5 38v270q0 22 15.5 37.5t38.5 15.5h108q23 0 38.5 -15.5t15.5 -37.5v-270z" />
<glyph unicode="&#xf5;" d="M343 700q45 0 84 -17t68 -46t46 -68t17 -84v-270q0 -45 -17 -84t-46 -68t-68 -46t-84 -17h-108q-45 0 -84 17t-68 46t-46 68t-17 84v270q0 45 17 84t46 68t68 46t84 17h108zM397 485q0 22 -15.5 37.5t-38.5 15.5h-108q-23 0 -38.5 -15.5t-15.5 -37.5v-270q0 -22 15.5 -38 t38.5 -16h108q23 0 38.5 16t15.5 38v270zM373 786q-5 -4 -12.5 -8.5t-12.5 -8.5l-23 -15q-5 -4 -12.5 -4t-12.5 4l-23 15q-5 4 -12.5 4t-12.5 -4l-23 -15q-5 -4 -12 -4t-12 4l-23 15q-12 8 0 17l23 15q5 4 12.5 8.5t12.5 8.5l22 15q12 7 25 0l23 -15q5 -4 12.5 -4t12.5 4 l23 15q5 3 12.5 3t12.5 -3l22 -15q12 -9 0 -17z" />
<glyph unicode="&#xf6;" d="M343 700q45 0 84 -17t68 -46t46 -68t17 -84v-270q0 -45 -17 -84t-46 -68t-68 -46t-84 -17h-108q-45 0 -84 17t-68 46t-46 68t-17 84v270q0 45 17 84t46 68t68 46t84 17h108zM397 485q0 22 -15.5 37.5t-38.5 15.5h-108q-23 0 -38.5 -15.5t-15.5 -37.5v-270q0 -22 15.5 -38 t38.5 -16h108q23 0 38.5 16t15.5 38v270zM357 831q11 0 18.5 -7.5t7.5 -18.5v-30q0 -11 -7.5 -18t-18.5 -7h-30q-11 0 -18 7t-7 18v30q0 11 7 18.5t18 7.5h30zM250 831q11 0 18 -7.5t7 -18.5v-30q0 -11 -7 -18t-18 -7h-30q-11 0 -18.5 7t-7.5 18v30q0 11 7.5 18.5t18.5 7.5 h30z" />
<glyph unicode="&#xf7;" horiz-adv-x="363" d="M128 262q0 14 10 24t24 10h40q14 0 24 -10t10 -24v-40q0 -14 -10 -24t-24 -10h-40q-14 0 -24 10t-10 24v40zM202 512q14 0 24 -10t10 -24v-40q0 -14 -10 -24t-24 -10h-40q-14 0 -24 10t-10 24v40q0 14 10 24t24 10h40zM20 386h323v-72h-323v72z" />
<glyph unicode="&#xf9;" d="M558 215q0 -45 -17 -84t-46 -68t-68 -46t-84 -17h-108q-45 0 -84 17t-68 46t-46 68t-17 84v485h161v-485q0 -22 15.5 -38t38.5 -16h108q23 0 38.5 16t15.5 38v485h161v-485zM248 890q6 9 14 9t14 -9l80 -119q5 -9 2 -15t-14 -6h-57q-11 0 -22 6t-17 15l-26 38 q-6 9 -6 21.5t6 21.5z" />
<glyph unicode="&#xfa;" d="M558 215q0 -45 -17 -84t-46 -68t-68 -46t-84 -17h-108q-45 0 -84 17t-68 46t-46 68t-17 84v485h161v-485q0 -22 15.5 -38t38.5 -16h108q23 0 38.5 16t15.5 38v485h161v-485zM356 852q5 -8 5 -21t-5 -21l-26 -39q-6 -8 -17.5 -14.5t-22.5 -6.5h-56q-11 0 -14.5 6.5 t2.5 14.5l80 120q5 8 13.5 8t14.5 -8z" />
<glyph unicode="&#xfb;" d="M188 773q-6 4 -6 9.5t6 10.5l84 56q7 4 15.5 4t15.5 -4l84 -56q6 -5 6 -10.5t-6 -9.5l-27 -19q-6 -4 -15 -4t-15 4l-27 19q-7 4 -15.5 4t-15.5 -4l-27 -19q-6 -4 -15 -4t-15 4zM558 700h-161v-485q0 -22 -15.5 -38t-38.5 -16h-108q-23 0 -38.5 16t-15.5 38v485h-161v-485 q0 -45 17 -84t46 -68t68 -46t84 -17h108q45 0 84 17t68 46t46 68t17 84v485z" />
<glyph unicode="&#xfc;" d="M558 215q0 -45 -17 -84t-46 -68t-68 -46t-84 -17h-108q-45 0 -84 17t-68 46t-46 68t-17 84v485h161v-485q0 -22 15.5 -38t38.5 -16h108q23 0 38.5 16t15.5 38v485h161v-485zM357 831q11 0 18.5 -7.5t7.5 -18.5v-30q0 -11 -7.5 -18t-18.5 -7h-30q-11 0 -18 7t-7 18v30 q0 11 7 18.5t18 7.5h30zM250 831q11 0 18 -7.5t7 -18.5v-30q0 -11 -7 -18t-18 -7h-30q-11 0 -18.5 7t-7.5 18v30q0 11 7.5 18.5t18.5 7.5h30z" />
<glyph unicode="&#x2dc;" horiz-adv-x="265" d="M217 786q-5 -4 -12.5 -8.5t-12.5 -8.5l-23 -15q-5 -4 -12.5 -4t-12.5 4l-23 15q-5 4 -12.5 4t-12.5 -4l-23 -15q-5 -4 -12 -4t-12 4l-23 15q-12 8 0 17l23 15q5 4 12.5 8.5t12.5 8.5l22 15q12 7 25 0l23 -15q5 -4 12.5 -4t12.5 4l23 15q5 3 12.5 3t12.5 -3l22 -15 q12 -9 0 -17z" />
<glyph unicode="&#x2000;" horiz-adv-x="449" />
<glyph unicode="&#x2001;" horiz-adv-x="899" />
<glyph unicode="&#x2002;" horiz-adv-x="449" />
<glyph unicode="&#x2003;" horiz-adv-x="899" />
<glyph unicode="&#x2004;" horiz-adv-x="299" />
<glyph unicode="&#x2005;" horiz-adv-x="224" />
<glyph unicode="&#x2006;" horiz-adv-x="149" />
<glyph unicode="&#x2007;" horiz-adv-x="149" />
<glyph unicode="&#x2008;" horiz-adv-x="112" />
<glyph unicode="&#x2009;" horiz-adv-x="179" />
<glyph unicode="&#x200a;" horiz-adv-x="49" />
<glyph unicode="&#x2010;" horiz-adv-x="363" d="M20 269v108h323v-108h-323v0z" />
<glyph unicode="&#x2011;" horiz-adv-x="363" d="M20 269v108h323v-108h-323v0z" />
<glyph unicode="&#x2012;" horiz-adv-x="363" d="M20 269v108h323v-108h-323v0z" />
<glyph unicode="&#x2013;" horiz-adv-x="540" d="M20 269v108h500v-108h-500v0z" />
<glyph unicode="&#x2014;" horiz-adv-x="1040" d="M20 269v108h1000v-108h-1000v0z" />
<glyph unicode="&#x201c;" horiz-adv-x="308" d="M282 653q6 -9 6 -21.5t-6 -20.5l-25 -39q-6 -9 -17.5 -15t-22.5 -6h-57q-11 0 -14 6t3 15l79 119q6 9 14.5 9t14.5 -9zM157 653q6 -9 6 -21.5t-6 -20.5l-25 -39q-6 -9 -17.5 -15t-22.5 -6h-57q-11 0 -14 6t3 15l80 119q5 9 13.5 9t14.5 -9z" />
<glyph unicode="&#x201d;" horiz-adv-x="308" d="M52 691q5 9 13.5 9t14.5 -9l79 -119q6 -9 3 -15t-14 -6h-57q-11 0 -22.5 6t-16.5 15l-26 39q-6 8 -6 20.5t6 21.5zM176 691q6 9 14.5 9t14.5 -9l79 -119q6 -9 3 -15t-14 -6h-57q-11 0 -22.5 6t-17.5 15l-25 39q-6 8 -6 20.5t6 21.5zM52 691q5 9 13.5 9t14.5 -9l79 -119 q6 -9 3 -15t-14 -6h-57q-11 0 -22.5 6t-16.5 15l-26 39q-6 8 -6 20.5t6 21.5zM176 691q6 9 14.5 9t14.5 -9l79 -119q6 -9 3 -15t-14 -6h-57q-11 0 -22.5 6t-17.5 15l-25 39q-6 8 -6 20.5t6 21.5z" />
<glyph unicode="&#x202f;" horiz-adv-x="179" />
<glyph unicode="&#x205f;" horiz-adv-x="224" />
<glyph unicode="&#x20ac;" d="M343 161q23 0 38.5 16t15.5 38h161q0 -45 -17 -84t-46 -68t-68 -46t-84 -17h-108q-45 0 -84 17t-68 46t-46 68t-17 84v270q0 45 17 84t46 68t68 46t84 17h108q45 0 84 -17t68 -46t46 -68t17 -84h-161q0 22 -15.5 37.5t-38.5 15.5h-108q-23 0 -38.5 -15.5t-15.5 -37.5v-54 h216v-54h-216v-54h162v-54h-162v-54q0 -22 15.5 -38t38.5 -16h108v0z" />
<glyph unicode="&#x25fc;" horiz-adv-x="700" d="M0 700h700v-700h-700v700z" />
</font>
</defs>
</svg>
